<svg xmlns="http://www.w3.org/2000/svg" xmlns:xlink="http://www.w3.org/1999/xlink" width="320" height="49.653" viewBox="0 0 320 49.653"><defs><clipPath id="a"><rect width="320" height="49.653" fill="none"/></clipPath></defs><g clip-path="url(#a)"><path d="M438.468,38.422l-2.091,5.909a.967.967,0,0,1-.262.435.731.731,0,0,1-.457.121,2.92,2.92,0,0,1-.816-.077c-.15-.053-.241-.116-.271-.191s-.055-.146-.077-.21l-3.238-7.868a6.283,6.283,0,0,0-.531-1.133,1.353,1.353,0,0,0-.763-.587c-.125-.044-.219-.077-.279-.1a.523.523,0,0,1-.167-.107.27.27,0,0,1-.086-.193l.027-.054c0-.175.177-.265.53-.265h3.762a.617.617,0,0,1,.336.113c.112.077.17.152.17.231-.036.143-.174.255-.416.34a2.286,2.286,0,0,0-.518.234c-.1.07-.155.241-.155.513a1.089,1.089,0,0,0,.059.347,4.267,4.267,0,0,0,.17.44q.114.257.147.352l2.517,6.179,1.963-5.571c-.137-.374-.272-.734-.4-1.078a3.642,3.642,0,0,0-.492-.908,1.437,1.437,0,0,0-.778-.53q-.335-.053-.374-.291c0-.247.2-.37.589-.37h3.71c.371,0,.557.089.557.265a.284.284,0,0,1-.127.264,2.5,2.5,0,0,1-.406.171,1.287,1.287,0,0,0-.433.236.6.6,0,0,0-.176.417,1.333,1.333,0,0,0,.036.309c.025.1.053.2.089.312s.072.234.114.382l2.546,6.5,2.357-6.411a3.309,3.309,0,0,0,.187-.907c0-.266-.045-.431-.136-.49a3.37,3.37,0,0,0-.564-.254c-.285-.108-.449-.248-.492-.419q0-.371.608-.37h2.57c.388,0,.583.089.583.266s-.141.3-.422.42a1.684,1.684,0,0,0-.99.746,11.865,11.865,0,0,0-.73,1.618l-2.656,7.183a.655.655,0,0,1-.255.445,1.068,1.068,0,0,1-.542.113,2.694,2.694,0,0,0-.317.026,2.773,2.773,0,0,1-.317.025.359.359,0,0,1-.281-.11,2.628,2.628,0,0,1-.3-.5Z" transform="translate(-157.374 -12.497)" fill="#1b4298"/><path d="M460.451,40.364a6.293,6.293,0,0,0,1.83,2.548,4.265,4.265,0,0,0,2.781.951,3.192,3.192,0,0,0,1.574-.359,5.687,5.687,0,0,0,1.161-.862q.522-.5.632-.5a.338.338,0,0,1,.222.083.26.26,0,0,1,.1.208.747.747,0,0,1-.205.509,8.306,8.306,0,0,1-.618.6,6.233,6.233,0,0,1-6.3,1.088,5.857,5.857,0,0,1-1.874-1.178,5.426,5.426,0,0,1-1.72-4,6.208,6.208,0,0,1,.4-2.217,5.925,5.925,0,0,1,1.135-1.887,5.322,5.322,0,0,1,1.736-1.287A5.109,5.109,0,0,1,463.5,33.6a4.7,4.7,0,0,1,3.11,1.138,6.639,6.639,0,0,1,1.98,2.867Zm-.214-.738,4.908-1.643.33-.1a1.043,1.043,0,0,0,.321-.15.378.378,0,0,0,.165-.229,2.624,2.624,0,0,0-.469-1.4,4.5,4.5,0,0,0-1.18-1.246,2.377,2.377,0,0,0-1.367-.507,2.6,2.6,0,0,0-2.114.978,3.516,3.516,0,0,0-.806,2.308,9.589,9.589,0,0,0,.214,1.993" transform="translate(-167.857 -12.314)" fill="#1b4298"/><path d="M484.412,34.02l1.142,1.9a1.683,1.683,0,0,1,.213.5.243.243,0,0,1-.136.24.178.178,0,0,0-.051.015.192.192,0,0,1-.052.015,4.747,4.747,0,0,1-.938-.7,12.3,12.3,0,0,0-1.743-1.221,3.585,3.585,0,0,0-1.8-.521,2.518,2.518,0,0,0-1.387.386,1.261,1.261,0,0,0-.6,1.125,1.07,1.07,0,0,0,.516.983,4.327,4.327,0,0,0,1.338.5q1.891.486,2.559.67a9.049,9.049,0,0,1,1.587.641,4.222,4.222,0,0,1,1.507,1.22,3.011,3.011,0,0,1,.586,1.9,2.739,2.739,0,0,1-.641,1.819,3.913,3.913,0,0,1-1.64,1.143,5.654,5.654,0,0,1-2.022.379,2.724,2.724,0,0,1-.606-.07c-.2-.044-.459-.119-.777-.222s-.55-.174-.7-.212a1.77,1.77,0,0,0-.463-.061.588.588,0,0,0-.369.295c-.123.179-.239.279-.351.3-.139,0-.312-.132-.525-.4l-2.234-2.815a2.955,2.955,0,0,1-.13-.291.466.466,0,0,1,.091-.268.269.269,0,0,1,.226-.132,4.02,4.02,0,0,1,1.318,1.01,10.341,10.341,0,0,0,1.911,1.5,4.762,4.762,0,0,0,2.478.588,2.4,2.4,0,0,0,1.6-.571,2.012,2.012,0,0,0,.736-1.472,1.789,1.789,0,0,0-.963-1.724,12.81,12.81,0,0,0-2.9-.962,10.518,10.518,0,0,1-2.925-1.047,2.107,2.107,0,0,1-.989-1.959,2.539,2.539,0,0,1,.519-1.57,3.375,3.375,0,0,1,1.332-1.057,4.012,4.012,0,0,1,1.681-.369,4.886,4.886,0,0,1,1.043.158,4.6,4.6,0,0,0,1,.158,1.158,1.158,0,0,0,.642-.238.872.872,0,0,1,.317-.162.5.5,0,0,1,.362.2,1.148,1.148,0,0,1,.245.393" transform="translate(-174.694 -12.25)" fill="#1b4298"/><path d="M497.827,32.942v6.939a3.44,3.44,0,0,0,.26,1.467,1.084,1.084,0,0,0,1.088.544,1.356,1.356,0,0,0,.636-.122,5.647,5.647,0,0,0,.565-.383,1.364,1.364,0,0,1,.541-.291.282.282,0,0,1,.223.106.351.351,0,0,1,.094.238q-.032.647-1.147,1.082a5.385,5.385,0,0,1-1.872.433,2.979,2.979,0,0,1-1.876-.553,1.919,1.919,0,0,1-.714-1.619q0-.376.038-1.171t.039-1.159v-5.51h-.369c-.509,0-.774-.088-.8-.264,0-.211.139-.4.421-.557a6.3,6.3,0,0,0,2.1-3.481c.108-.3.251-.454.427-.454.23,0,.345.241.345.72v3.028h2.824v1.009Z" transform="translate(-181.233 -10.33)" fill="#1b4298"/><path d="M313.655,56.178l.025,3.894c0,.719.2,1.137.609,1.248l.343.1c.213.067.317.183.317.353,0,.265-.266.4-.8.4h-6.759a13.209,13.209,0,0,1-3.78-.518,8.969,8.969,0,0,1-3.082-1.576,7.2,7.2,0,0,1-2.074-2.66,8.746,8.746,0,0,1-.741-3.707,9.189,9.189,0,0,1,.7-3.527,9.664,9.664,0,0,1,1.975-3.038,9.414,9.414,0,0,1,2.95-2.087,8.489,8.489,0,0,1,3.523-.758,4.168,4.168,0,0,1,.894.1c.29.063.582.139.874.231s.606.181.936.268a3.371,3.371,0,0,0,.85.131.591.591,0,0,0,.482-.163c.25-.3.435-.452.556-.452.194,0,.369.151.53.452l1.478,3.313a1.633,1.633,0,0,1,.1.317q0,.375-.393.375c-.106,0-.267-.125-.479-.375A7.225,7.225,0,0,0,311.16,46.8a7.867,7.867,0,0,0-2.06-1.22,5.9,5.9,0,0,0-2.209-.449,5.207,5.207,0,0,0-3.542,1.233,7.253,7.253,0,0,0-2.082,3.163,12.247,12.247,0,0,0-.663,4,8.84,8.84,0,0,0,.9,4.044,6.6,6.6,0,0,0,2.6,2.774,7.733,7.733,0,0,0,3.98,1h.693a3.44,3.44,0,0,0,1.717-.335,1.457,1.457,0,0,0,.563-1.358q.027,0,.027-3.712a1.634,1.634,0,0,0-.174-.85.9.9,0,0,0-.435-.373c-.173-.065-.326-.127-.461-.183a.3.3,0,0,1-.2-.29q0-.393.8-.394h3.543c.53,0,.8.132.8.394a.283.283,0,0,1-.106.231.716.716,0,0,1-.259.132l-.294.089a.685.685,0,0,0-.518.487,3.45,3.45,0,0,0-.117,1" transform="translate(-109.105 -16.236)" fill="#1b4298"/><path d="M334.831,59.806l-2.093,5.911a.944.944,0,0,1-.262.432.7.7,0,0,1-.456.123,2.945,2.945,0,0,1-.817-.077c-.15-.053-.241-.115-.271-.191s-.056-.146-.077-.21l-3.237-7.868a6.14,6.14,0,0,0-.531-1.133,1.356,1.356,0,0,0-.763-.589c-.126-.043-.218-.077-.279-.1a.54.54,0,0,1-.167-.107.269.269,0,0,1-.085-.2l.026-.051c0-.176.177-.265.531-.265h3.763a.617.617,0,0,1,.337.113c.112.076.168.153.168.23-.035.143-.173.257-.416.341a2.261,2.261,0,0,0-.517.232c-.1.072-.155.244-.155.514a1.107,1.107,0,0,0,.059.345,3.894,3.894,0,0,0,.17.442c.077.17.125.288.146.352l2.519,6.179,1.963-5.571c-.139-.375-.274-.735-.4-1.077a3.654,3.654,0,0,0-.492-.909,1.445,1.445,0,0,0-.777-.53q-.337-.052-.374-.291,0-.37.588-.37h3.711c.37,0,.556.089.556.265a.279.279,0,0,1-.128.262,2.354,2.354,0,0,1-.4.172,1.259,1.259,0,0,0-.434.236.587.587,0,0,0-.175.417,1.333,1.333,0,0,0,.034.308c.025.1.054.2.089.312s.072.237.116.383l2.544,6.5,2.356-6.411a3.224,3.224,0,0,0,.189-.905c0-.267-.045-.432-.137-.493a3.235,3.235,0,0,0-.563-.253c-.284-.108-.448-.248-.492-.419q0-.37.609-.37h2.571c.388,0,.582.089.582.265s-.14.3-.422.421a1.68,1.68,0,0,0-.99.743,12.014,12.014,0,0,0-.73,1.62l-2.654,7.184a.661.661,0,0,1-.257.445,1.071,1.071,0,0,1-.541.113,3.068,3.068,0,0,0-.316.025,2.68,2.68,0,0,1-.319.027.364.364,0,0,1-.281-.11,2.745,2.745,0,0,1-.3-.5Z" transform="translate(-119.394 -20.334)" fill="#1b4298"/><path d="M358.57,52.512v8.277a4.66,4.66,0,0,0,.148,1.293,1.145,1.145,0,0,0,.7.73c.2.029.3.117.324.264,0,.174-.035.277-.1.315a1.068,1.068,0,0,1-.43.054h-3.42q-.529,0-.53-.291c0-.1.113-.222.337-.379a1.915,1.915,0,0,0,.571-.665,2.815,2.815,0,0,0,.236-1.321V55.218a1.709,1.709,0,0,0-.138-.881.715.715,0,0,0-.414-.239.448.448,0,0,1-.354-.311c0-.117.1-.25.3-.4a6.023,6.023,0,0,1,.713-.471c.277-.158.55-.3.814-.434s.425-.207.482-.233a.8.8,0,0,1,.445-.181q.318,0,.318.448m.16-3.894a1.084,1.084,0,0,1-.516.919,1.9,1.9,0,0,1-1.1.359.878.878,0,0,1-.62-.231.761.761,0,0,1-.252-.593,1.1,1.1,0,0,1,.542-.924,1.9,1.9,0,0,1,1.1-.378.794.794,0,0,1,.594.265.837.837,0,0,1,.252.583" transform="translate(-130.193 -17.507)" fill="#1b4298"/><path d="M367.548,44.826V59.539a4.709,4.709,0,0,0,.145,1.3,1.136,1.136,0,0,0,.7.72.343.343,0,0,1,.322.265c0,.244-.117.367-.35.367h-3.59c-.356,0-.532-.1-.532-.291,0-.1.112-.22.337-.378a1.986,1.986,0,0,0,.574-.663,2.847,2.847,0,0,0,.235-1.32V47.687a2.054,2.054,0,0,0-.155-1.019.746.746,0,0,0-.443-.282.4.4,0,0,1-.335-.337c0-.21.186-.4.559-.556l1.7-.907c.057-.029.117-.061.176-.1s.123-.067.186-.1a.4.4,0,0,1,.172-.044.476.476,0,0,1,.293.478" transform="translate(-133.486 -16.253)" fill="#1b4298"/><path d="M376.509,44.826V59.539a4.61,4.61,0,0,0,.146,1.3,1.132,1.132,0,0,0,.7.72.342.342,0,0,1,.324.265c0,.244-.118.367-.351.367h-3.588c-.356,0-.532-.1-.532-.291,0-.1.112-.22.335-.378a1.923,1.923,0,0,0,.573-.663,2.82,2.82,0,0,0,.237-1.32V47.687a2.045,2.045,0,0,0-.156-1.019.739.739,0,0,0-.444-.282.4.4,0,0,1-.333-.337c0-.21.187-.4.559-.556l1.7-.907c.056-.029.114-.061.177-.1s.121-.067.185-.1a.387.387,0,0,1,.172-.044.475.475,0,0,1,.292.478" transform="translate(-136.771 -16.253)" fill="#1b4298"/><path d="M385.495,52.512v8.277a4.632,4.632,0,0,0,.148,1.293,1.148,1.148,0,0,0,.7.73c.193.029.3.117.322.264,0,.174-.034.277-.1.315a1.066,1.066,0,0,1-.429.054h-3.422q-.529,0-.53-.291c0-.1.112-.222.337-.379a1.932,1.932,0,0,0,.573-.665,2.823,2.823,0,0,0,.237-1.321V55.218a1.69,1.69,0,0,0-.139-.881.72.72,0,0,0-.415-.239.447.447,0,0,1-.352-.311c0-.117.1-.25.3-.4a6.291,6.291,0,0,1,.713-.471c.279-.158.55-.3.815-.434l.482-.233a.808.808,0,0,1,.445-.181q.317,0,.317.448m.161-3.894a1.086,1.086,0,0,1-.516.919,1.9,1.9,0,0,1-1.1.359.879.879,0,0,1-.619-.231.764.764,0,0,1-.253-.593,1.11,1.11,0,0,1,.543-.924,1.906,1.906,0,0,1,1.1-.378.8.8,0,0,1,.594.265.837.837,0,0,1,.252.583" transform="translate(-140.06 -17.507)" fill="#1b4298"/><path d="M402.1,58.277V63.29a4.785,4.785,0,0,0,.144,1.3,1.033,1.033,0,0,0,.7.7.372.372,0,0,1,.292.291c0,.243-.169.369-.506.369h-3.422c-.339,0-.506-.106-.506-.318,0-.1.113-.212.337-.35a1.648,1.648,0,0,0,.568-.622,2.921,2.921,0,0,0,.234-1.367V59.073q0-2.839-2.094-2.839a4.812,4.812,0,0,0-3.308,1.672v5.382a4.823,4.823,0,0,0,.142,1.3,1.04,1.04,0,0,0,.712.694c.172.068.271.164.292.291,0,.243-.169.369-.507.369h-3.436q-.53,0-.531-.316c0-.105.112-.224.337-.363a1.69,1.69,0,0,0,.572-.62,2.848,2.848,0,0,0,.237-1.355V57.752q0-.908-.454-1.062a.618.618,0,0,1-.479-.342.557.557,0,0,1,.351-.506q1.671-.859,2.263-1.189a.7.7,0,0,0,.077-.013.686.686,0,0,1,.077-.013q.346,0,.345.632v1.747a8.872,8.872,0,0,1,2.027-1.615,4.475,4.475,0,0,1,2.267-.661,2.623,2.623,0,0,1,1.891.72,4.419,4.419,0,0,1,1.13,1.873,11.97,11.97,0,0,1,2-1.883,3.578,3.578,0,0,1,2.14-.71q2.665,0,3.152,3l.881,5.941a3.973,3.973,0,0,0,.309,1.091.935.935,0,0,0,.722.5c.285.03.436.146.453.343q0,.343-.634.343h-3.5q-.61,0-.609-.318c0-.116.119-.241.355-.373a2.229,2.229,0,0,0,.57-.425,1.1,1.1,0,0,0,.213-.769q0-.265-.051-.8l-.718-4.826q-.311-2.341-1.99-2.339a2.715,2.715,0,0,0-1.723.625,5.427,5.427,0,0,0-1.325,1.553" transform="translate(-143.37 -20.019)" fill="#1b4298"/><path d="M426.979,45.212v7.343a4.63,4.63,0,0,1,6.114-.549,5.874,5.874,0,0,1,1.865,2.349,7.154,7.154,0,0,1,.654,2.974,4.938,4.938,0,0,1-.718,2.572,5.482,5.482,0,0,1-1.921,1.929,4.883,4.883,0,0,1-2.555.722,4.438,4.438,0,0,1-1.349-.179,12.935,12.935,0,0,1-1.242-.48,2.944,2.944,0,0,0-.934-.3.852.852,0,0,0-.469.131,2.27,2.27,0,0,0-.417.357,2.907,2.907,0,0,1-.374.35.613.613,0,0,1-.375.121q-.376,0-.376-.636V47.893a3.358,3.358,0,0,0-.127-1.1.6.6,0,0,0-.335-.407c-.141-.042-.248-.075-.323-.1s-.113-.089-.113-.2c0-.238.159-.424.48-.558l1.775-.958c.3-.125.46-.188.478-.188q.266,0,.266.822m0,10.468v2.285q0,3.732,2.856,3.733a2.584,2.584,0,0,0,1.553-.481,3.668,3.668,0,0,0,1.093-1.243,6.291,6.291,0,0,0,.624-1.634,7.491,7.491,0,0,0,.2-1.7,6.164,6.164,0,0,0-.4-2.137,4.52,4.52,0,0,0-1.19-1.8,2.691,2.691,0,0,0-1.882-.723q-2.854,0-2.856,3.707" transform="translate(-155.377 -16.268)" fill="#1b4298"/><path d="M452.765,64.321a10.46,10.46,0,0,1-1.866,1.453,3.726,3.726,0,0,1-1.925.532,4.268,4.268,0,0,1-1.565-.3,2.952,2.952,0,0,1-1.241-.863,1.855,1.855,0,0,1-.454-.92,6.931,6.931,0,0,1-.1-1.283V58.22a2.684,2.684,0,0,0-.179-1.206A.917.917,0,0,0,445,56.6c-.172-.07-.259-.169-.259-.295,0-.1.117-.241.354-.415a7.657,7.657,0,0,1,.826-.516c.316-.173.618-.328.9-.464l.466-.222a.623.623,0,0,0,.085-.013l.077-.013c.212,0,.32.24.32.718v7.166a3.227,3.227,0,0,0,.491,1.833,1.713,1.713,0,0,0,1.542.737,2.71,2.71,0,0,0,1.528-.468,8.222,8.222,0,0,0,1.438-1.254V58a1.733,1.733,0,0,0-.175-.912,1.663,1.663,0,0,0-.449-.448c-.185-.124-.276-.246-.276-.362a.305.305,0,0,1,.117-.262,4.022,4.022,0,0,1,.389-.244l1.672-.9.277-.158a.592.592,0,0,1,.281-.084c.23,0,.344.153.344.455a1.529,1.529,0,0,1-.013.169c-.008.077-.013.126-.013.148v8.278a2.9,2.9,0,0,0,.165,1.067,1.025,1.025,0,0,0,.684.578c.189.066.295.162.317.293q0,.336-.531.337h-1.724a1.111,1.111,0,0,1-.866-.244,1.259,1.259,0,0,1-.2-.787Z" transform="translate(-162.983 -20.022)" fill="#1b4298"/><path d="M467.894,58.867v4.71a3.362,3.362,0,0,0,.172,1.182.891.891,0,0,0,.761.544c.245.034.37.139.37.316,0,.211-.179.316-.532.316h-3.539c-.355,0-.532-.1-.532-.291,0-.1.111-.22.336-.378a1.894,1.894,0,0,0,.573-.661,2.814,2.814,0,0,0,.237-1.319V58.071a2.211,2.211,0,0,0-.177-1.1,1.027,1.027,0,0,0-.454-.378.375.375,0,0,1-.276-.349c.017-.16.188-.33.509-.509.149-.077.469-.256.954-.533s.869-.482,1.15-.613a.676.676,0,0,0,.077-.013.607.607,0,0,1,.08-.013c.195,0,.292.22.292.662v2.081a4.882,4.882,0,0,1,.969-1.265,4.635,4.635,0,0,1,1.349-.893,3.878,3.878,0,0,1,1.548-.321,5.878,5.878,0,0,1,1.885.4l-.8,2.184c-.084.3-.206.454-.369.454q-.2,0-.438-.471a3.1,3.1,0,0,0-.5-.743,1.2,1.2,0,0,0-.894-.275q-1.8,0-2.757,2.488" transform="translate(-170.261 -19.998)" fill="#1b4298"/><path d="M487.781,63.994l2.757-6.121a3.2,3.2,0,0,0,.266-.931.6.6,0,0,0-.142-.447,1.2,1.2,0,0,0-.447-.232,2.78,2.78,0,0,1-.441-.168.417.417,0,0,1-.2-.266.284.284,0,0,1,.16-.245.6.6,0,0,1,.32-.1h2.862q.563,0,.563.317c0,.169-.176.3-.53.4a1.688,1.688,0,0,0-.89.632,6.683,6.683,0,0,0-.677,1.221l-4.379,9.47a6.111,6.111,0,0,1-1.165,1.819,2.312,2.312,0,0,1-1.723.642,7.125,7.125,0,0,1-1.858-.423l-.291-1.887a.449.449,0,0,1-.026-.214c0-.146.1-.243.292-.291.051,0,.215.168.488.5a5.647,5.647,0,0,0,.836.848,1.478,1.478,0,0,0,.954.344,1.375,1.375,0,0,0,1.208-.6,12.212,12.212,0,0,0,.942-1.785l-4.137-8.905c-.248-.477-.428-.808-.544-.989a.977.977,0,0,0-.571-.389c-.376-.091-.578-.215-.61-.376l.027-.026q0-.316.506-.317h3.789c.354,0,.53.1.53.291,0,.084-.121.179-.366.29a3.853,3.853,0,0,0-.544.288.49.49,0,0,0-.177.434,1.643,1.643,0,0,0,.169.6c.111.257.17.392.174.4Z" transform="translate(-176.202 -20.334)" fill="#1b4298"/><path d="M357.078,7.669a11.974,11.974,0,0,1,2.988,1.007,6.338,6.338,0,0,1,2.274,1.851,4.43,4.43,0,0,1,.887,2.764,4.642,4.642,0,0,1-.371,1.807,5.07,5.07,0,0,1-1.029,1.578,4.672,4.672,0,0,1-1.519,1.069,10.228,10.228,0,0,1-2.805.782,25.352,25.352,0,0,1-3.339.2q-.758,0-2.3-.059t-2.307-.06c-.039,0-.165,0-.372.013s-.383.011-.527.011q-1.339,0-1.34-.46c0-.136.137-.268.41-.392a2.019,2.019,0,0,0,.669-.471,1.574,1.574,0,0,0,.26-1.045V2.748a2.36,2.36,0,0,0-.186-1.034,1.192,1.192,0,0,0-.826-.544c-.218-.067-.328-.189-.328-.367q0-.348.627-.415a41.759,41.759,0,0,1,4.338-.166,16.288,16.288,0,0,1,5.675.783,4.807,4.807,0,0,1,1.989,1.4,3.23,3.23,0,0,1,.8,2.134,2.452,2.452,0,0,1-.52,1.613,3.309,3.309,0,0,1-1.295.957,10.528,10.528,0,0,1-1.846.557m-5.7-5.63v3.8a1.7,1.7,0,0,0,.3,1.226,1.633,1.633,0,0,0,1.062.265,11.087,11.087,0,0,0,3.769-.556A2.273,2.273,0,0,0,358.038,4.4a2.692,2.692,0,0,0-1.568-2.628,8.282,8.282,0,0,0-3.673-.766,1.838,1.838,0,0,0-1.172.271.984.984,0,0,0-.245.763m0,7.458v6.374a2.258,2.258,0,0,0,.279,1.255,1.253,1.253,0,0,0,.75.535,5.1,5.1,0,0,0,1.237.12q6.642,0,6.641-4.5a4.707,4.707,0,0,0-.649-2.386,5.127,5.127,0,0,0-1.731-1.806,5.74,5.74,0,0,0-2.157-.761,19.771,19.771,0,0,0-2.784-.169c-1.059,0-1.586.272-1.586.818Z" transform="translate(-127.281 -0.082)" fill="#1b4298"/><path d="M377.892,15.159v4.846a3.5,3.5,0,0,0,.175,1.218.918.918,0,0,0,.784.558c.253.035.378.144.378.325q0,.327-.544.326h-3.631q-.546,0-.547-.3c0-.1.117-.23.347-.389a2.014,2.014,0,0,0,.59-.683,2.9,2.9,0,0,0,.244-1.357V14.338a2.255,2.255,0,0,0-.184-1.126,1.045,1.045,0,0,0-.466-.39.385.385,0,0,1-.283-.359c.016-.167.19-.343.518-.528.156-.082.483-.266.979-.556s.89-.5,1.179-.639a.664.664,0,0,0,.08-.013.782.782,0,0,1,.08-.012c.2,0,.3.229.3.687v2.157a5.007,5.007,0,0,1,1-1.313,4.751,4.751,0,0,1,1.387-.926,3.971,3.971,0,0,1,1.59-.333,5.938,5.938,0,0,1,1.935.414l-.817,2.259c-.084.314-.21.47-.38.47-.136,0-.287-.16-.448-.482a3.146,3.146,0,0,0-.51-.766,1.236,1.236,0,0,0-.921-.284q-1.848,0-2.831,2.56" transform="translate(-137.246 -3.927)" fill="#1b4298"/><path d="M397.848,21.354a5.856,5.856,0,0,1-3.795,1.494,6.253,6.253,0,0,1-2.2-.418,4.556,4.556,0,0,1-1.841-1.243,2.855,2.855,0,0,1-.729-1.951,3.05,3.05,0,0,1,.779-2.046,5.2,5.2,0,0,1,1.966-1.4,5.992,5.992,0,0,1,2.325-.5,4.768,4.768,0,0,1,2.564.818c-.072-.435-.159-.945-.264-1.529a5.693,5.693,0,0,0-.427-1.442,2.1,2.1,0,0,0-.855-.914,3.065,3.065,0,0,0-1.565-.346,2.9,2.9,0,0,0-1.434.331,6.312,6.312,0,0,0-1.135.825c-.364.331-.6.5-.7.5a.3.3,0,0,1-.207-.086.254.254,0,0,1-.092-.188,1.5,1.5,0,0,1,.875-1.23,7.5,7.5,0,0,1,2-.841,7.3,7.3,0,0,1,1.785-.3q3.515,0,3.9,3.163l1.006,6.083q.219,1.333.958,1.333a.908.908,0,0,0,.535-.241,1.506,1.506,0,0,1,.445-.274.3.3,0,0,1,.206.087.285.285,0,0,1,.094.215,1.079,1.079,0,0,1-.683.952,2.827,2.827,0,0,1-1.335.363,2.494,2.494,0,0,1-2.177-1.21m-.768-4.217a3.613,3.613,0,0,0-2.431-1.088,3.4,3.4,0,0,0-1.583.376,2.884,2.884,0,0,0-1.156,1.059,2.847,2.847,0,0,0-.427,1.536,2.51,2.51,0,0,0,.456,1.453,3.225,3.225,0,0,0,1.2,1.047,3.271,3.271,0,0,0,1.514.381,3.465,3.465,0,0,0,2.924-1.467Z" transform="translate(-142.66 -3.988)" fill="#1b4298"/><path d="M418.639,17.78a4.885,4.885,0,0,1-3.271,1.2,5.424,5.424,0,0,1-2.8-.737,5.288,5.288,0,0,1-1.964-2.014,5.694,5.694,0,0,1-.711-2.819,6.878,6.878,0,0,1,.4-2.333,6.387,6.387,0,0,1,1.156-2.008,5.512,5.512,0,0,1,1.79-1.387,5.107,5.107,0,0,1,2.264-.5A4.042,4.042,0,0,1,418.639,8.7V3.667a1.613,1.613,0,0,0-.183-.915,1.42,1.42,0,0,0-.48-.394c-.2-.1-.3-.219-.3-.354,0-.191.165-.357.5-.494L419.968.55a2.71,2.71,0,0,1,.52-.215.219.219,0,0,1,.139.028c.158.052.24.263.24.627V15.243a5.8,5.8,0,0,0,.113,1.34.609.609,0,0,0,.432.459q.413.112.414.413a.473.473,0,0,1-.3.434c-.16.08-.421.238-.784.471a10.535,10.535,0,0,1-.964.558,1.805,1.805,0,0,1-.786.207c-.253,0-.38-.231-.38-.689,0-.106.005-.236.014-.393s.013-.243.013-.262m.106-3.6V12.548a10.924,10.924,0,0,0-.191-2.17,3.1,3.1,0,0,0-.81-1.581,2.4,2.4,0,0,0-1.8-.642,3,3,0,0,0-2.077.745,4.306,4.306,0,0,0-1.216,1.893,7.421,7.421,0,0,0-.382,2.355,6.865,6.865,0,0,0,.407,2.294,4.626,4.626,0,0,0,1.24,1.91,2.878,2.878,0,0,0,2,.755,2.331,2.331,0,0,0,2.239-1.071,5.916,5.916,0,0,0,.592-2.857" transform="translate(-150.215 -0.123)" fill="#1b4298"/><path d="M433.771,8.435v7.348a4.712,4.712,0,0,0,.154,1.325,1.177,1.177,0,0,0,.718.748.35.35,0,0,1,.334.271c0,.252-.12.379-.359.379h-3.684c-.365,0-.546-.1-.546-.3,0-.1.116-.228.346-.389a2.012,2.012,0,0,0,.59-.681,2.9,2.9,0,0,0,.244-1.355V8.435h-1.612l-.328-1.042h2.02q-.141-2.5-.141-2.978a7.176,7.176,0,0,1,.313-2.134A3.523,3.523,0,0,1,432.863.636,2.779,2.779,0,0,1,434.751,0,2.247,2.247,0,0,1,436,.367a2.55,2.55,0,0,1,.881.971,2.727,2.727,0,0,1,.316,1.284,1.962,1.962,0,0,1-.421,1.224A1.3,1.3,0,0,1,435.7,4.4a1.241,1.241,0,0,1-.889-.371,1.172,1.172,0,0,1-.384-.874c0-.361.09-.542.272-.542a1.586,1.586,0,0,1,.38.053.509.509,0,0,0,.419-.28,1.009,1.009,0,0,0,.181-.54,1.092,1.092,0,0,0-.3-.76.965.965,0,0,0-.74-.326,1.2,1.2,0,0,0-1.108.608,2.672,2.672,0,0,0-.362,1.4,8.035,8.035,0,0,0,.049.924q.049.424.191,1.271t.212,1.378a10.319,10.319,0,0,1,.094,1.049h3.074L436.6,8.435Z" transform="translate(-157.447 -0.001)" fill="#1b4298"/><path d="M453.156,17.729a4.847,4.847,0,0,1-.772,2.691,5.31,5.31,0,0,1-2.065,1.858,5.96,5.96,0,0,1-2.768.666,6.443,6.443,0,0,1-5.5-3.1,5.957,5.957,0,0,1-.867-3.135,5.719,5.719,0,0,1,.717-2.845,5.175,5.175,0,0,1,1.995-2,5.692,5.692,0,0,1,2.858-.723,5.861,5.861,0,0,1,3.188.928,6.822,6.822,0,0,1,2.341,2.451,6.38,6.38,0,0,1,.869,3.205m-2.3.906a9,9,0,0,0-.552-2.941,7.186,7.186,0,0,0-1.589-2.679,3.224,3.224,0,0,0-2.394-1.089,2.634,2.634,0,0,0-2.167.979,3.712,3.712,0,0,0-.786,2.4,9.1,9.1,0,0,0,.557,3.025,6.889,6.889,0,0,0,1.643,2.662,3.512,3.512,0,0,0,2.554,1.074,2.319,2.319,0,0,0,2.062-.988,4.247,4.247,0,0,0,.672-2.445" transform="translate(-161.683 -4.085)" fill="#1b4298"/><path d="M465.8,15.159v4.846a3.5,3.5,0,0,0,.176,1.218.916.916,0,0,0,.784.558c.255.035.378.144.378.325,0,.218-.181.326-.544.326h-3.631c-.366,0-.547-.1-.547-.3,0-.1.117-.23.348-.389a2.024,2.024,0,0,0,.589-.683,2.887,2.887,0,0,0,.244-1.357V14.338a2.254,2.254,0,0,0-.184-1.126,1.037,1.037,0,0,0-.466-.39.387.387,0,0,1-.282-.359c.018-.167.191-.343.519-.528q.233-.123.979-.556c.5-.29.89-.5,1.178-.639a.607.607,0,0,0,.08-.013c.046-.008.073-.012.081-.012q.3,0,.3.687v2.157a5.052,5.052,0,0,1,1-1.313,4.757,4.757,0,0,1,1.386-.926,3.983,3.983,0,0,1,1.592-.333,5.944,5.944,0,0,1,1.934.414l-.817,2.259c-.086.314-.21.47-.38.47-.137,0-.287-.16-.449-.482a3.162,3.162,0,0,0-.511-.766,1.236,1.236,0,0,0-.921-.284q-1.849,0-2.832,2.56" transform="translate(-169.463 -3.927)" fill="#1b4298"/><path d="M486,17.78a4.886,4.886,0,0,1-3.272,1.2,5.414,5.414,0,0,1-2.8-.737,5.278,5.278,0,0,1-1.965-2.014,5.694,5.694,0,0,1-.712-2.819,6.88,6.88,0,0,1,.4-2.333,6.39,6.39,0,0,1,1.156-2.007,5.5,5.5,0,0,1,1.79-1.387,5.1,5.1,0,0,1,2.264-.5A4.045,4.045,0,0,1,486,8.7V3.667a1.614,1.614,0,0,0-.183-.914,1.431,1.431,0,0,0-.48-.395c-.2-.1-.3-.219-.3-.354q0-.287.5-.494l1.8-.962a2.719,2.719,0,0,1,.519-.214.225.225,0,0,1,.139.027c.158.053.239.263.239.627V15.243a5.831,5.831,0,0,0,.113,1.34.61.61,0,0,0,.432.459q.414.112.414.413a.473.473,0,0,1-.3.434c-.161.08-.422.238-.786.471a10.218,10.218,0,0,1-.964.558,1.8,1.8,0,0,1-.786.207c-.253,0-.38-.231-.38-.689,0-.106.006-.236.014-.393S486,17.8,486,17.78m.106-3.6V12.548a10.977,10.977,0,0,0-.191-2.17A3.105,3.105,0,0,0,485.1,8.8a2.4,2.4,0,0,0-1.8-.641,3,3,0,0,0-2.078.745A4.31,4.31,0,0,0,480,10.793a7.422,7.422,0,0,0-.382,2.355,6.835,6.835,0,0,0,.409,2.294,4.626,4.626,0,0,0,1.239,1.91,2.88,2.88,0,0,0,2,.755,2.33,2.33,0,0,0,2.24-1.072,5.907,5.907,0,0,0,.592-2.856" transform="translate(-174.9 -0.123)" fill="#1b4298"/><path d="M63.645,42.466C74.263,32.618,106.223,9.389,172.864,7.712c0,0-125.292-13.745-172.864,42.758a314.7,314.7,0,0,1,60.914-7.93c.914-.036,1.822-.052,2.731-.075" transform="translate(0 -2.287)" fill="#0096d6"/><path d="M161.136,47.028l2.1.4s19.934-35.116,89.27-35.116c0,0-91.248-14.049-143.492,31.526a313.279,313.279,0,0,1,52.121,3.189" transform="translate(-39.951 -3.764)" fill="#78a22f"/></g></svg>